<svg width="171" height="75" viewBox="0 0 171 75" fill="none" xmlns="http://www.w3.org/2000/svg">
<path d="M33.5 33V9H1.5V1.5H169.5V73H1.5V63.5H33.5V40H9V33H33.5Z" stroke="white" stroke-width="3"/>
<path d="M25.5 16.5H1.5V25.5H25.5V16.5Z" stroke="white" stroke-width="3"/>
<path d="M25.5 47.5H1.5V56.5H25.5V47.5Z" stroke="white" stroke-width="3"/>
<path d="M65.5 64.5V66H67V64.5H65.5ZM41.5 64.5H40V66H41.5V64.5ZM41.5 33.5V32H40V33.5H41.5ZM65.5 33.5H67V32H65.5V33.5ZM47.5 41.5V40H46V41.5H47.5ZM47.5 56.5H46V58H47.5V56.5ZM59.5 56.5V58H61V56.5H59.5ZM59.5 41.5H61V40H59.5V41.5ZM65.5 64.5V63H41.5V64.5V66H65.5V64.5ZM41.5 64.5H43V33.5H41.5H40V64.5H41.5ZM41.5 33.5V35H65.5V33.5V32H41.5V33.5ZM65.5 33.5H64V64.5H65.5H67V33.5H65.5ZM47.5 41.5H46V56.5H47.5H49V41.5H47.5ZM47.5 56.5V58H59.5V56.5V55H47.5V56.5ZM59.5 56.5H61V41.5H59.5H58V56.5H59.5ZM59.5 41.5V40H47.5V41.5V43H59.5V41.5Z" fill="white"/>
<path d="M154.5 56.5H153V58H154.5V56.5ZM160.5 56.5H162V55H160.5V56.5ZM160.5 64.5V66H162V64.5H160.5ZM130.5 64.5H129V66H130.5V64.5ZM130.5 33.5V32H129V33.5H130.5ZM154.5 33.5H156V32H154.5V33.5ZM136.5 56.5H135V58H136.5V56.5ZM148.5 56.5V58H150V56.5H148.5ZM148.5 41.5H150V40H148.5V41.5ZM136.5 41.5V40H135V41.5H136.5ZM154.5 56.5V58H160.5V56.5V55H154.5V56.5ZM160.5 56.5H159V64.5H160.5H162V56.5H160.5ZM160.5 64.5V63H130.5V64.5V66H160.5V64.5ZM130.5 64.5H132V33.5H130.5H129V64.5H130.5ZM130.5 33.5V35H154.5V33.5V32H130.5V33.5ZM154.5 33.5H153V56.5H154.5H156V33.5H154.5ZM136.5 56.5V58H148.5V56.5V55H136.5V56.5ZM148.5 56.5H150V41.5H148.5H147V56.5H148.5ZM148.5 41.5V40H136.5V41.5V43H148.5V41.5ZM136.5 41.5H135V56.5H136.5H138V41.5H136.5Z" fill="white"/>
<path d="M123 65V66.5H124.5V65H123ZM98 65H96.5V66.5H98V65ZM98 33V31.5H96.5V33H98ZM115 33V34.5H116.5V33H115ZM115 8V6.5H113.5V8H115ZM123 8H124.5V6.5H123V8ZM104 41V39.5H102.5V41H104ZM104 57H102.5V58.5H104V57ZM117 57V58.5H118.5V57H117ZM117 41H118.5V39.5H117V41ZM123 65V63.5H98V65V66.5H123V65ZM98 65H99.5V33H98H96.5V65H98ZM98 33V34.5H115V33V31.5H98V33ZM115 33H116.5V8H115H113.5V33H115ZM115 8V9.5H123V8V6.5H115V8ZM123 8H121.5V65H123H124.5V8H123ZM104 41H102.5V57H104H105.5V41H104ZM104 57V58.5H117V57V55.5H104V57ZM117 57H118.5V41H117H115.5V57H117ZM117 41V39.5H104V41V42.5H117V41Z" fill="white"/>
<path d="M91.5 33.5H93V32H91.5V33.5ZM91.5 42.5V44H93V42.5H91.5ZM81.5 42.5V41H80V42.5H81.5ZM81.5 64.5V66H83V64.5H81.5ZM72.5 64.5H71V66H72.5V64.5ZM72.5 33.5V32H71V33.5H72.5ZM91.5 33.5H90V42.5H91.5H93V33.5H91.5ZM91.5 42.5V41H81.5V42.5V44H91.5V42.5ZM81.5 42.5H80V64.5H81.5H83V42.5H81.5ZM81.5 64.5V63H72.5V64.5V66H81.5V64.5ZM72.5 64.5H74V33.5H72.5H71V64.5H72.5ZM72.5 33.5V35H91.5V33.5V32H72.5V33.5Z" fill="white"/>
</svg>
